<svg id="Layer_1" data-name="Layer 1" xmlns="http://www.w3.org/2000/svg" xmlns:xlink="http://www.w3.org/1999/xlink" viewBox="0 0 183 120"><defs><style>.cls-1{fill:#d84e55;}.cls-2{fill:#fff;}.cls-3{fill:#a82c36;}.cls-4{fill:#e74251;}.cls-5{fill:none;stroke:#fff;stroke-linecap:round;stroke-linejoin:round;}.cls-6,.cls-9{opacity:0.2;}.cls-6{fill:url(#linear-gradient);}.cls-7,.cls-8{opacity:0.15;}.cls-7{fill:url(#linear-gradient-2);}.cls-8{fill:url(#linear-gradient-3);}.cls-9{fill:url(#linear-gradient-4);}</style><linearGradient id="linear-gradient" x1="97.39" y1="7.94" x2="159.31" y2="7.94" gradientUnits="userSpaceOnUse"><stop offset="0" stop-color="#fff" stop-opacity="0"/><stop offset="1" stop-color="#fff"/></linearGradient><linearGradient id="linear-gradient-2" x1="85.42" y1="25.1" x2="146.18" y2="25.1" xlink:href="#linear-gradient"/><linearGradient id="linear-gradient-3" x1="126.44" y1="35.1" x2="153.69" y2="35.1" xlink:href="#linear-gradient"/><linearGradient id="linear-gradient-4" x1="117.86" y1="15.21" x2="148.12" y2="15.21" xlink:href="#linear-gradient"/></defs><rect class="cls-1" width="183" height="120"/><path class="cls-2" d="M14.65,81.23V87h3v1.21H13.31v-7Z"/><path class="cls-2" d="M20.86,81.23v7H19.52v-7Z"/><path class="cls-2" d="M24.91,81.23l2.32,4.51,2.3-4.51h1.53v7H29.83v-5l-2.18,4.3h-.86l-2.19-4.3v5H23.38v-7Z"/><path class="cls-2" d="M34.92,81.23v7H33.58v-7Z"/><path class="cls-2" d="M42.37,81.23v1.19H40.19v5.81H38.84V82.42H36.66V81.23Z"/><path class="cls-2" d="M49.25,81.23V82.4H45.46v1.73h3.4V85.3h-3.4v1.76h3.91v1.17H44.12v-7Z"/><path class="cls-2" d="M56.32,81.68a3.23,3.23,0,0,1,1.3,1.24,3.56,3.56,0,0,1,.47,1.81,3.42,3.42,0,0,1-.48,1.81,3.26,3.26,0,0,1-1.31,1.24,4,4,0,0,1-1.91.45H51.53v-7h2.91A3.87,3.87,0,0,1,56.32,81.68Zm-.7,5.08a2.13,2.13,0,0,0,.81-.82,2.48,2.48,0,0,0,.29-1.2,2.4,2.4,0,0,0-.3-1.2,2.07,2.07,0,0,0-.83-.83,2.32,2.32,0,0,0-1.17-.3H52.87v4.64h1.6A2.31,2.31,0,0,0,55.62,86.76Z"/><path class="cls-2" d="M68.22,81.86A2.22,2.22,0,0,1,69,83.64a2.4,2.4,0,0,1-.73,1.87,2.91,2.91,0,0,1-2,.66H64.65v2.06H63.31v-7h2.87A3,3,0,0,1,68.22,81.86Zm-1,2.8a1.18,1.18,0,0,0,.41-1,1.16,1.16,0,0,0-.41-1,1.86,1.86,0,0,0-1.16-.32H64.65V85h1.46A1.8,1.8,0,0,0,67.27,84.66Z"/><path class="cls-2" d="M76,81.23V82.4H72.2v1.73h3.4V85.3H72.2v1.76h3.91v1.17H70.86v-7Z"/><path class="cls-2" d="M81.44,86.16H79.61v2.06H78.27v-7h2.92a3.17,3.17,0,0,1,2.1.63A2.23,2.23,0,0,1,84,83.64a2.58,2.58,0,0,1-.36,1.4,2.11,2.11,0,0,1-1,.87l1.54,2.32H82.65ZM81.19,85a1.8,1.8,0,0,0,1.16-.33,1.21,1.21,0,0,0,.4-1,1.18,1.18,0,0,0-.4-1,1.86,1.86,0,0,0-1.16-.32H79.61V85Z"/><path class="cls-2" d="M87.64,81.23v7H86.3v-7Z"/><path class="cls-2" d="M95.23,81.61a3.49,3.49,0,0,1,1.35,1.29,3.54,3.54,0,0,1,.49,1.82,3.52,3.52,0,0,1-1.84,3.13,4,4,0,0,1-3.79,0,3.53,3.53,0,0,1-1.83-3.13,3.45,3.45,0,0,1,.49-1.82,3.4,3.4,0,0,1,1.34-1.29,4.06,4.06,0,0,1,3.79,0Zm-3.06,1A2.35,2.35,0,0,0,91,84.72a2.38,2.38,0,0,0,1.19,2.08,2.36,2.36,0,0,0,1.19.32,2.32,2.32,0,0,0,2-1.19,2.4,2.4,0,0,0,.32-1.21,2.34,2.34,0,0,0-.32-1.2,2.34,2.34,0,0,0-2-1.18A2.33,2.33,0,0,0,92.17,82.66Z"/><path class="cls-2" d="M103.84,81.68a3.3,3.3,0,0,1,1.3,1.24,3.56,3.56,0,0,1,.47,1.81,3.42,3.42,0,0,1-.48,1.81,3.26,3.26,0,0,1-1.31,1.24,4,4,0,0,1-1.91.45H99.05v-7H102A3.9,3.9,0,0,1,103.84,81.68Zm-.7,5.08a2.13,2.13,0,0,0,.81-.82,2.48,2.48,0,0,0,.29-1.2,2.4,2.4,0,0,0-.3-1.2,2.07,2.07,0,0,0-.83-.83,2.32,2.32,0,0,0-1.17-.3h-1.55v4.64H102A2.34,2.34,0,0,0,103.14,86.76Z"/><path class="cls-2" d="M115.9,81.61a3.49,3.49,0,0,1,1.35,1.29,3.54,3.54,0,0,1,.49,1.82,3.52,3.52,0,0,1-1.84,3.13,4,4,0,0,1-3.79,0,3.53,3.53,0,0,1-1.83-3.13,3.45,3.45,0,0,1,.49-1.82,3.4,3.4,0,0,1,1.34-1.29,4.06,4.06,0,0,1,3.79,0Zm-3.06,1a2.35,2.35,0,0,0-1.19,2.06,2.38,2.38,0,0,0,1.19,2.08,2.36,2.36,0,0,0,1.19.32,2.32,2.32,0,0,0,2-1.19,2.4,2.4,0,0,0,.32-1.21,2.34,2.34,0,0,0-.32-1.2,2.34,2.34,0,0,0-2-1.18A2.33,2.33,0,0,0,112.84,82.66Z"/><path class="cls-2" d="M124.55,81.23V82.4h-3.48v1.89h3.17v1.17h-3.17v2.77h-1.34v-7Z"/><path class="cls-2" d="M131.18,81.23V82.4h-3.48v1.89h3.17v1.17h-3.17v2.77h-1.34v-7Z"/><path class="cls-2" d="M138.11,81.23V82.4h-3.79v1.73h3.4V85.3h-3.4v1.76h3.91v1.17H133v-7Z"/><path class="cls-2" d="M143.56,86.16h-1.83v2.06h-1.34v-7h2.92a3.17,3.17,0,0,1,2.1.63,2.23,2.23,0,0,1,.74,1.78,2.58,2.58,0,0,1-.36,1.4,2.11,2.11,0,0,1-1,.87l1.54,2.32h-1.53ZM143.31,85a1.8,1.8,0,0,0,1.16-.33,1.21,1.21,0,0,0,.4-1,1.18,1.18,0,0,0-.4-1,1.86,1.86,0,0,0-1.16-.32h-1.58V85Z"/><path class="cls-2" d="M18.81,49.69h-2.2v3.78H12.45v-14H19a6.59,6.59,0,0,1,4.37,1.3,4.53,4.53,0,0,1,1.55,3.68,5.54,5.54,0,0,1-.61,2.67,4.56,4.56,0,0,1-1.75,1.79l2.84,4.58H20.67Zm.18-3.2a2,2,0,0,0,1.45-.5A2,2,0,0,0,21,44.55a1.84,1.84,0,0,0-.51-1.41A2,2,0,0,0,19,42.65H16.61v3.84Z"/><path class="cls-2" d="M31.57,49.57a2.24,2.24,0,0,0,1.7.72,2.12,2.12,0,0,0,1.64-.71,2.79,2.79,0,0,0,.64-1.91V39.45h4.16v8.22a6.31,6.31,0,0,1-.79,3.21A5.42,5.42,0,0,1,36.67,53a7.34,7.34,0,0,1-3.4.75A7.48,7.48,0,0,1,29.83,53a5.46,5.46,0,0,1-2.29-2.12,6.22,6.22,0,0,1-.81-3.21V39.45h4.16v8.22A2.68,2.68,0,0,0,31.57,49.57Z"/><path class="cls-2" d="M49.47,42.85a7,7,0,0,0-2.2-.46,1.48,1.48,0,0,0-.85.21.68.68,0,0,0-.31.61,1,1,0,0,0,.6.87,11.1,11.1,0,0,0,1.9.67,17.73,17.73,0,0,1,2.44.85,4.37,4.37,0,0,1,1.67,1.31,3.59,3.59,0,0,1,.71,2.32,4,4,0,0,1-.77,2.47,4.69,4.69,0,0,1-2.08,1.51,8.22,8.22,0,0,1-2.93.5A11.45,11.45,0,0,1,44,53.1a10.27,10.27,0,0,1-3.13-1.67l1.56-3.16a9.32,9.32,0,0,0,2.59,1.55,7.14,7.14,0,0,0,2.63.63,1.89,1.89,0,0,0,1.06-.26.86.86,0,0,0,.38-.74,1,1,0,0,0-.62-.89,9.69,9.69,0,0,0-1.92-.65,19.16,19.16,0,0,1-2.42-.79,4.43,4.43,0,0,1-1.66-1.27,3.47,3.47,0,0,1-.7-2.26,4,4,0,0,1,.72-2.37,4.52,4.52,0,0,1,2-1.55,8,8,0,0,1,3-.54,11.3,11.3,0,0,1,3.14.45,10.26,10.26,0,0,1,2.72,1.19L51.93,44A13.16,13.16,0,0,0,49.47,42.85Z"/><path class="cls-2" d="M59.11,39.45V45h5V39.45h4.16v14H64.09V48.25h-5v5.22H55v-14Z"/><path class="cls-2" d="M79,39.45V45h5V39.45h4.16v14H84V48.25H79v5.22H74.83v-14Z"/><path class="cls-2" d="M101.24,40.13A7,7,0,0,1,104,42.72a7.05,7.05,0,0,1,1,3.71,7.25,7.25,0,0,1-1,3.75,7.12,7.12,0,0,1-2.74,2.62,8.54,8.54,0,0,1-7.83,0,7.09,7.09,0,0,1-2.73-2.62,7.25,7.25,0,0,1-1-3.75,7.05,7.05,0,0,1,1-3.71,7,7,0,0,1,2.73-2.59,8.62,8.62,0,0,1,7.83,0Zm-5.56,3a3.55,3.55,0,0,0-1.26,1.37A3.91,3.91,0,0,0,94,46.45a4,4,0,0,0,.47,1.94,3.68,3.68,0,0,0,1.26,1.39,3.06,3.06,0,0,0,1.71.51,3,3,0,0,0,1.67-.51,3.61,3.61,0,0,0,1.21-1.38,4.3,4.3,0,0,0,.44-1.95,4.25,4.25,0,0,0-.44-1.93,3.57,3.57,0,0,0-1.2-1.37,3,3,0,0,0-1.68-.5A3.05,3.05,0,0,0,95.68,43.15Z"/><path class="cls-2" d="M111.15,49.57a2.24,2.24,0,0,0,1.7.72,2.13,2.13,0,0,0,1.64-.71,2.79,2.79,0,0,0,.64-1.91V39.45h4.16v8.22a6.42,6.42,0,0,1-.79,3.21A5.42,5.42,0,0,1,116.25,53a7.37,7.37,0,0,1-3.4.75,7.48,7.48,0,0,1-3.44-.75,5.46,5.46,0,0,1-2.29-2.12,6.22,6.22,0,0,1-.81-3.21V39.45h4.16v8.22A2.64,2.64,0,0,0,111.15,49.57Z"/><path class="cls-2" d="M127.79,49.69h-2.2v3.78h-4.16v-14H128a6.61,6.61,0,0,1,4.37,1.3,4.53,4.53,0,0,1,1.55,3.68,5.66,5.66,0,0,1-.61,2.67,4.56,4.56,0,0,1-1.75,1.79l2.84,4.58h-4.72Zm.18-3.2a2,2,0,0,0,1.45-.5,2,2,0,0,0,.51-1.44,1.84,1.84,0,0,0-.51-1.41,2,2,0,0,0-1.45-.49h-2.38v3.84Z"/><path class="cls-2" d="M23.2,59.62a7,7,0,0,1,2.74,2.59,7.08,7.08,0,0,1,1,3.71,7.2,7.2,0,0,1-1,3.75,7,7,0,0,1-2.74,2.62,8.11,8.11,0,0,1-3.91.95,8.06,8.06,0,0,1-3.92-.95,7,7,0,0,1-2.73-2.62,7.2,7.2,0,0,1-1-3.75,7,7,0,0,1,3.72-6.3,8.06,8.06,0,0,1,3.92-.94A8.1,8.1,0,0,1,23.2,59.62Zm-5.56,3A3.55,3.55,0,0,0,16.38,64a3.91,3.91,0,0,0-.47,1.93,4,4,0,0,0,.47,1.94,3.61,3.61,0,0,0,1.26,1.39,3.11,3.11,0,0,0,1.71.51A3,3,0,0,0,21,69.27a3.53,3.53,0,0,0,1.21-1.38,4.3,4.3,0,0,0,.44-2A4.25,4.25,0,0,0,22.23,64,3.41,3.41,0,0,0,21,62.64a3,3,0,0,0-1.68-.5A3.18,3.18,0,0,0,17.64,62.64Z"/><path class="cls-2" d="M39.37,58.94v3.2H32.65v2.8h6.24v3.2H32.65V73H28.49v-14Z"/><path class="cls-2" d="M51.75,58.94v3.2H45v2.8h6.24v3.2H45V73H40.87v-14Z"/><path class="cls-2" d="M64.71,58.94v3.2h-7.3v2.2H64v3.2H57.41v2.22h7.5V73H53.25v-14Z"/><path class="cls-2" d="M73.27,69.18h-2.2V73H66.91v-14h6.54a6.61,6.61,0,0,1,4.37,1.3,4.55,4.55,0,0,1,1.55,3.68,5.6,5.6,0,0,1-.61,2.67A4.56,4.56,0,0,1,77,68.38L79.85,73H75.13Zm.18-3.2a2,2,0,0,0,1.45-.5A1.92,1.92,0,0,0,75.41,64a1.87,1.87,0,0,0-.51-1.41,2,2,0,0,0-1.45-.49H71.07V66Z"/><path class="cls-3" d="M0,9.43H58a1,1,0,0,1,1,1V22.12a1,1,0,0,1-1,1H0a0,0,0,0,1,0,0V9.43A0,0,0,0,1,0,9.43Z"/><path class="cls-4" d="M19,17.07l-4-4a.54.54,0,0,0-.39-.14l-3.19,0a.45.45,0,0,0-.46.47v3.25a.44.44,0,0,0,.14.33l0,0c4,4,4.08,4,4.12,4a.41.41,0,0,0,.19,0,.47.47,0,0,0,.33-.14L19,17.73a.44.44,0,0,0,.13-.33A.46.46,0,0,0,19,17.07Zm-6-1.39a.68.68,0,1,1,.69-.68A.68.68,0,0,1,13,15.68Z"/><path class="cls-2" d="M23.07,14.51a2,2,0,0,1,.93-.24v1.29h-.21a1.41,1.41,0,0,0-1,.34,1.2,1.2,0,0,0-.36.91v2.29H21.06V14.33h1.37v.86A1.75,1.75,0,0,1,23.07,14.51Z"/><path class="cls-2" d="M28.53,15a2.66,2.66,0,0,1,.6,1.85,2.73,2.73,0,0,1,0,.32H25.71a1.22,1.22,0,0,0,.44.71,1.31,1.31,0,0,0,.79.25,1.56,1.56,0,0,0,.64-.13,1.59,1.59,0,0,0,.56-.38l.72.73a2.47,2.47,0,0,1-.88.62,2.89,2.89,0,0,1-1.16.22,2.72,2.72,0,0,1-1.31-.3,2,2,0,0,1-.87-.85,2.62,2.62,0,0,1-.3-1.27,2.52,2.52,0,0,1,.31-1.27,2.1,2.1,0,0,1,.86-.86,2.66,2.66,0,0,1,1.28-.31A2.19,2.19,0,0,1,28.53,15Zm-1,.62a1,1,0,0,0-.75-.29,1,1,0,0,0-.74.28,1.29,1.29,0,0,0-.38.76h2.17A1,1,0,0,0,27.55,15.57Z"/><path class="cls-2" d="M34.72,19.09H33.37v-.7a1.71,1.71,0,0,1-.64.56,1.86,1.86,0,0,1-.87.19,2.21,2.21,0,0,1-1.18-.31A2,2,0,0,1,29.9,18a2.77,2.77,0,0,1-.28-1.28,2.86,2.86,0,0,1,.27-1.27,2.06,2.06,0,0,1,.78-.85,2.23,2.23,0,0,1,1.16-.3,1.79,1.79,0,0,1,1.54.76V12.52h1.35ZM33,17.68a1.55,1.55,0,0,0,0-1.91,1.13,1.13,0,0,0-.86-.36,1.12,1.12,0,0,0-.86.36,1.51,1.51,0,0,0,0,1.91,1.12,1.12,0,0,0,.86.36A1.13,1.13,0,0,0,33,17.68Z"/><path class="cls-2" d="M40.43,13.29a2.84,2.84,0,0,1,1.15,1.1A3,3,0,0,1,42,16a3.09,3.09,0,0,1-.42,1.61,2.86,2.86,0,0,1-1.17,1.09,3.55,3.55,0,0,1-1.72.4H36.11v-6.2h2.63A3.6,3.6,0,0,1,40.43,13.29Zm-.73,4.38a1.82,1.82,0,0,0,.64-.68,2.13,2.13,0,0,0,.23-1,2,2,0,0,0-.25-1,1.75,1.75,0,0,0-.66-.69,1.89,1.89,0,0,0-.95-.24h-1.2v3.84h1.26A1.84,1.84,0,0,0,39.7,17.67Z"/><path class="cls-2" d="M46.68,15a2.7,2.7,0,0,1,.59,1.85,2.73,2.73,0,0,1,0,.32H43.85a1.27,1.27,0,0,0,.44.71,1.31,1.31,0,0,0,.79.25,1.64,1.64,0,0,0,.65-.13,1.56,1.56,0,0,0,.55-.38l.72.73a2.39,2.39,0,0,1-.88.62,2.89,2.89,0,0,1-1.16.22,2.75,2.75,0,0,1-1.31-.3,2.16,2.16,0,0,1-.87-.85,2.62,2.62,0,0,1-.3-1.27,2.52,2.52,0,0,1,.31-1.27,2.06,2.06,0,0,1,.87-.86,2.62,2.62,0,0,1,1.27-.31A2.21,2.21,0,0,1,46.68,15Zm-1,.62a1,1,0,0,0-.75-.29,1.06,1.06,0,0,0-.74.28,1.34,1.34,0,0,0-.38.76H46A1,1,0,0,0,45.69,15.57Z"/><path class="cls-2" d="M50.93,18.53a1.6,1.6,0,0,1-.62.46,2.23,2.23,0,0,1-.88.16,1.69,1.69,0,0,1-1.19-.41,1.4,1.4,0,0,1-.45-1.08,1.27,1.27,0,0,1,.48-1.05,2.16,2.16,0,0,1,1.34-.38h1.31v-.09a.75.75,0,0,0-.25-.59,1.14,1.14,0,0,0-.74-.21,2.91,2.91,0,0,0-1.42.42l-.42-.94a5.46,5.46,0,0,1,1.06-.41,4.11,4.11,0,0,1,1.09-.14,2.17,2.17,0,0,1,1.48.46A1.57,1.57,0,0,1,52.25,16v3.11H50.93ZM50.55,18a.78.78,0,0,0,.37-.51V17H49.85a1.12,1.12,0,0,0-.59.13.47.47,0,0,0-.19.41.51.51,0,0,0,.2.44.81.81,0,0,0,.54.17A1.31,1.31,0,0,0,50.55,18Z"/><path class="cls-2" d="M54.84,12.52v6.57H53.48V12.52Z"/><rect class="cls-3" y="95" width="183" height="25"/><path class="cls-2" d="M12.42,104.62,14.07,109l1.66-4.41h1.11l-2.24,5.6H13.48l-2.21-5.6Z"/><path class="cls-2" d="M19.26,104.62v5.6H18.19v-5.6Z"/><path class="cls-2" d="M25.38,104.62v.94h-3v1.38h2.72v.94H22.35v1.41h3.13v.93h-4.2v-5.6Z"/><path class="cls-2" d="M35.11,104.62l-1.9,5.6H32.1L30.82,106l-1.3,4.24h-1.1l-1.89-5.6h1.15L29,109.06l1.32-4.44h1.05l1.32,4.46L34,104.62Z"/><path class="cls-2" d="M43,105a1.18,1.18,0,0,1,.52,1,1.28,1.28,0,0,1-.26.8,1.25,1.25,0,0,1-.72.44,1.44,1.44,0,0,1,.88.48,1.42,1.42,0,0,1,.31.94,1.32,1.32,0,0,1-.55,1.13,2.47,2.47,0,0,1-1.52.41H39.05v-5.6h2.49A2.34,2.34,0,0,1,43,105Zm-.81,1.73a.63.63,0,0,0,.23-.51.6.6,0,0,0-.23-.5,1.08,1.08,0,0,0-.66-.17H40.12v1.36h1.36A1.08,1.08,0,0,0,42.14,106.73Zm.14,2.37a.62.62,0,0,0,.29-.56.6.6,0,0,0-.29-.54,1.32,1.32,0,0,0-.8-.18H40.12v1.48h1.36A1.32,1.32,0,0,0,42.28,109.1Z"/><path class="cls-2" d="M46.71,109a1.36,1.36,0,0,0,1,.38,1.31,1.31,0,0,0,1-.38,1.45,1.45,0,0,0,.37-1v-3.3h1.07v3.3a2.56,2.56,0,0,1-.3,1.27A2.1,2.1,0,0,1,49,110a2.79,2.79,0,0,1-1.29.28,2.81,2.81,0,0,1-1.31-.28,2,2,0,0,1-.85-.83,2.56,2.56,0,0,1-.3-1.27v-3.3h1.07v3.3A1.41,1.41,0,0,0,46.71,109Z"/><path class="cls-2" d="M54.69,105.66a2.59,2.59,0,0,0-.8-.15,1.1,1.1,0,0,0-.61.15.43.43,0,0,0-.22.4.49.49,0,0,0,.16.38,1.11,1.11,0,0,0,.39.26,5.73,5.73,0,0,0,.64.22,5.65,5.65,0,0,1,.93.34,1.56,1.56,0,0,1,.62.49,1.39,1.39,0,0,1,.26.87,1.45,1.45,0,0,1-.28.89,1.74,1.74,0,0,1-.76.58,2.92,2.92,0,0,1-1.1.2,3.32,3.32,0,0,1-1.28-.25,3.59,3.59,0,0,1-1.09-.65l.45-.91a3.31,3.31,0,0,0,1,.62,2.69,2.69,0,0,0,1,.22,1.33,1.33,0,0,0,.71-.17.54.54,0,0,0,.25-.47.57.57,0,0,0-.15-.4,1.44,1.44,0,0,0-.4-.25l-.66-.21c-.37-.12-.68-.23-.92-.33a1.63,1.63,0,0,1-.62-.49,1.33,1.33,0,0,1-.26-.85,1.45,1.45,0,0,1,.26-.85,1.7,1.7,0,0,1,.74-.56,2.7,2.7,0,0,1,1.1-.21,3.69,3.69,0,0,1,1.08.17,3.38,3.38,0,0,1,.94.43l-.43.93A4.06,4.06,0,0,0,54.69,105.66Z"/><path class="cls-2" d="M61.82,104.62v.94h-3v1.38h2.72v.94H58.79v1.41h3.13v.93h-4.2v-5.6Z"/><path class="cls-2" d="M66.28,105.66a2.59,2.59,0,0,0-.8-.15,1,1,0,0,0-.6.15.44.44,0,0,0-.23.4.49.49,0,0,0,.16.38,1.11,1.11,0,0,0,.39.26,5.73,5.73,0,0,0,.64.22,6.17,6.17,0,0,1,.94.34,1.71,1.71,0,0,1,.62.49,1.38,1.38,0,0,1,.25.87,1.51,1.51,0,0,1-.27.89,1.86,1.86,0,0,1-.76.58,3,3,0,0,1-1.11.2,3.32,3.32,0,0,1-1.28-.25,3.59,3.59,0,0,1-1.09-.65l.45-.91a3.31,3.31,0,0,0,1,.62,2.69,2.69,0,0,0,1,.22,1.31,1.31,0,0,0,.71-.17.54.54,0,0,0,.25-.47.57.57,0,0,0-.15-.4,1.44,1.44,0,0,0-.4-.25l-.65-.21q-.57-.18-.93-.33a1.63,1.63,0,0,1-.62-.49,1.32,1.32,0,0,1-.25-.85,1.38,1.38,0,0,1,.26-.85,1.61,1.61,0,0,1,.73-.56,2.73,2.73,0,0,1,1.1-.21,3.69,3.69,0,0,1,1.08.17,3.58,3.58,0,0,1,.95.43l-.44.93A3.85,3.85,0,0,0,66.28,105.66Z"/><path class="cls-2" d="M79.81,104.62l-1.89,5.6H76.8L75.52,106l-1.3,4.24h-1.1l-1.88-5.6h1.15l1.32,4.44L75,104.62h1.06l1.32,4.46,1.3-4.46Z"/><path class="cls-2" d="M82.23,104.62v5.6H81.16v-5.6Z"/><path class="cls-2" d="M88.19,104.62v.95H86.44v4.65H85.36v-4.65H83.62v-.95Z"/><path class="cls-2" d="M90.66,104.62V107h2.79v-2.4h1.07v5.6H93.45V108H90.66v2.27H89.59v-5.6Z"/><path class="cls-2" d="M103.09,104.62v.95h-1.74v4.65h-1.08v-4.65H98.52v-.95Z"/><path class="cls-2" d="M105.56,104.62V107h2.8v-2.4h1.07v5.6h-1.07V108h-2.8v2.27h-1.07v-5.6Z"/><path class="cls-2" d="M112.52,104.62v5.6h-1.07v-5.6Z"/><path class="cls-2" d="M117.18,105.66a2.64,2.64,0,0,0-.8-.15,1.08,1.08,0,0,0-.61.15.43.43,0,0,0-.22.4.52.52,0,0,0,.15.38,1.26,1.26,0,0,0,.4.26,5.09,5.09,0,0,0,.64.22,5.65,5.65,0,0,1,.93.34,1.63,1.63,0,0,1,.62.49,1.39,1.39,0,0,1,.26.87,1.45,1.45,0,0,1-.28.89,1.8,1.8,0,0,1-.76.58,2.93,2.93,0,0,1-1.11.2,3.39,3.39,0,0,1-1.28-.25,3.66,3.66,0,0,1-1.08-.65l.44-.91a3.36,3.36,0,0,0,1,.62,2.69,2.69,0,0,0,1,.22,1.27,1.27,0,0,0,.7-.17.55.55,0,0,0,.26-.47.54.54,0,0,0-.16-.4,1.25,1.25,0,0,0-.39-.25l-.66-.21q-.57-.18-.93-.33a1.6,1.6,0,0,1-.61-.49,1.33,1.33,0,0,1-.26-.85,1.45,1.45,0,0,1,.26-.85,1.7,1.7,0,0,1,.74-.56,2.7,2.7,0,0,1,1.1-.21,3.57,3.57,0,0,1,1.07.17,3.44,3.44,0,0,1,.95.43l-.43.93A4.06,4.06,0,0,0,117.18,105.66Z"/><path class="cls-2" d="M126.86,104.93a2.75,2.75,0,0,1,1.08,1,2.93,2.93,0,0,1,0,2.92,2.84,2.84,0,0,1-1.08,1,3,3,0,0,1-1.51.38,3,3,0,0,1-1.52-.38,2.89,2.89,0,0,1-1.07-1,2.86,2.86,0,0,1,0-2.92,2.79,2.79,0,0,1,1.07-1,3.12,3.12,0,0,1,1.52-.38A3.08,3.08,0,0,1,126.86,104.93Zm-2.45.83a1.9,1.9,0,0,0-.69.69,1.79,1.79,0,0,0-.26,1,1.87,1.87,0,0,0,.26,1,1.86,1.86,0,0,0,2.58.7,1.76,1.76,0,0,0,.68-.7,1.92,1.92,0,0,0,0-1.93,1.8,1.8,0,0,0-.68-.69,1.91,1.91,0,0,0-.94-.25A2,2,0,0,0,124.41,105.76Z"/><path class="cls-2" d="M133.78,104.62v.94H131v1.51h2.53V108H131v2.21h-1.07v-5.6Z"/><path class="cls-2" d="M139.08,104.62v.94h-2.79v1.51h2.54V108h-2.54v2.21h-1.07v-5.6Z"/><path class="cls-2" d="M144.63,104.62v.94h-3v1.38h2.72v.94H141.6v1.41h3.12v.93h-4.2v-5.6Z"/><path class="cls-2" d="M149,108.57h-1.47v1.65h-1.07v-5.6h2.34a2.52,2.52,0,0,1,1.68.51,1.77,1.77,0,0,1,.59,1.42,2.09,2.09,0,0,1-.28,1.12,1.79,1.79,0,0,1-.83.7l1.23,1.85H150Zm-.2-.94a1.49,1.49,0,0,0,.93-.26,1,1,0,0,0,.32-.79.92.92,0,0,0-.32-.76,1.43,1.43,0,0,0-.93-.26h-1.27v2.07Z"/><polyline class="cls-5" points="157.55 109.48 159.62 107.42 157.55 105.35"/><line class="cls-5" x1="159.62" y1="107.42" x2="153.99" y2="107.42"/><path class="cls-2" d="M174.26,23.84l-.47-.63a1.94,1.94,0,0,1,0-2.32l.46-.64a2,2,0,0,0-.71-2.91l-.7-.37a2,2,0,0,1-1-2.09l.13-.77A2,2,0,0,0,170,11.8l-.8,0a2,2,0,0,1-1.86-1.43l-.23-.75a2,2,0,0,0-2.75-1.28l-.74.31a2,2,0,0,1-2.31-.5l-.53-.58a2.06,2.06,0,0,0-3.05,0l-.52.59a2.05,2.05,0,0,1-2.31.53l-.74-.3a2.06,2.06,0,0,0-2.74,1.32l-.21.76a2,2,0,0,1-1.84,1.46l-.8,0a2,2,0,0,0-1.88,2.35l.14.77a2,2,0,0,1-1,2.1l-.69.38a2,2,0,0,0-.66,2.92l.48.63a2,2,0,0,1,0,2.33l-.46.63a2,2,0,0,0,.7,2.91l.7.37a2,2,0,0,1,1,2.09l-.14.77a2,2,0,0,0,1.92,2.32l.8,0A2,2,0,0,1,151.4,34l.22.76A2,2,0,0,0,154.38,36l.73-.31a2.06,2.06,0,0,1,2.32.5l.53.58a2,2,0,0,0,3,0l.53-.59a2,2,0,0,1,2.3-.53l.75.3a2,2,0,0,0,2.73-1.32l.21-.76a2,2,0,0,1,1.85-1.46l.8,0A2,2,0,0,0,172.05,30l-.15-.77a2,2,0,0,1,1-2.1l.7-.38A2,2,0,0,0,174.26,23.84ZM159.34,13c.32,0,.64,0,.95,0a9.16,9.16,0,1,1-5.4,1.11.94.94,0,0,1,.77-.07,1,1,0,0,1,.57.54h0a.94.94,0,0,1-.41,1.18,7.27,7.27,0,1,0,4.47-.85h0v2.74a1,1,0,0,1-.83,1,1,1,0,0,1-1-.57.94.94,0,0,1-.07-.37h0V13.94a1,1,0,0,1,.94-1Zm-3.14,5.69.09,0a17,17,0,0,1,4.49,2.66,1.57,1.57,0,0,1-.11,2.32,1.63,1.63,0,0,1-2.23-.19,18.66,18.66,0,0,1-2.56-4.38.35.35,0,0,1,.07-.34.31.31,0,0,1,.34-.07Z"/><rect class="cls-6" x="97.39" y="6.87" width="61.92" height="2.15"/><rect class="cls-7" x="85.42" y="24.03" width="60.77" height="2.15"/><rect class="cls-8" x="126.44" y="34.02" width="27.25" height="2.15"/><rect class="cls-9" x="117.86" y="14.14" width="30.26" height="2.15"/></svg>