<svg viewBox="0 0 183 120" xmlns="http://www.w3.org/2000/svg"><path d="m0 0h183v120h-183z" fill="#ffcb64"/><path d="m0 95h183v25h-183z" fill="#efa016"/><path d="m12.42 104.62 1.65 4.38 1.66-4.41h1.11l-2.24 5.6h-1.12l-2.21-5.6z" fill="#1f2f59"/><path d="m19.26 104.62v5.6h-1.07v-5.6z" fill="#1f2f59"/><path d="m25.38 104.62v.94h-3v1.38h2.72v.94h-2.75v1.41h3.13v.93h-4.2v-5.6z" fill="#1f2f59"/><path d="m35.11 104.62-1.9 5.6h-1.11l-1.28-4.22-1.3 4.24h-1.1l-1.89-5.6h1.15l1.32 4.42 1.32-4.44h1.05l1.32 4.46 1.31-4.46z" fill="#1f2f59"/><path d="m41.69 105.65a2.87 2.87 0 0 0 -.8-.14 1.2 1.2 0 0 0 -.61.14.46.46 0 0 0 -.22.41.49.49 0 0 0 .16.38 1.11 1.11 0 0 0 .39.26 5.73 5.73 0 0 0 .64.22 5.65 5.65 0 0 1 .93.34 1.56 1.56 0 0 1 .62.49 1.32 1.32 0 0 1 .26.86 1.46 1.46 0 0 1 -.28.9 1.74 1.74 0 0 1 -.76.58 2.92 2.92 0 0 1 -1.1.2 3.32 3.32 0 0 1 -1.28-.25 3.59 3.59 0 0 1 -1.09-.65l.45-.91a3.31 3.31 0 0 0 1 .62 2.69 2.69 0 0 0 1 .22 1.31 1.31 0 0 0 .71-.17.54.54 0 0 0 .25-.47.57.57 0 0 0 -.15-.4 1.44 1.44 0 0 0 -.4-.25l-.66-.22a9.42 9.42 0 0 1 -.92-.32 1.63 1.63 0 0 1 -.62-.49 1.33 1.33 0 0 1 -.26-.85 1.45 1.45 0 0 1 .26-.85 1.79 1.79 0 0 1 .74-.57 2.88 2.88 0 0 1 1.1-.2 4 4 0 0 1 1.08.16 3.7 3.7 0 0 1 .94.44l-.43.93a4.65 4.65 0 0 0 -.95-.41z" fill="#1f2f59"/><path d="m48.32 109h-2.73l-.5 1.18h-1.09l2.46-5.6h1.11l2.42 5.6h-1.17zm-.38-.92-1-2.35-1 2.35z" fill="#1f2f59"/><path d="m55.16 104.62v.94h-2.8v1.51h2.54v.93h-2.54v2.21h-1.07v-5.6z" fill="#1f2f59"/><path d="m60.7 104.62v.94h-3v1.38h2.72v.94h-2.75v1.41h3.13v.93h-4.2v-5.6z" fill="#1f2f59"/><path d="m66.47 104.62v.95h-1.75v4.65h-1.08v-4.65h-1.74v-.95z" fill="#1f2f59"/><path d="m70.33 108.39v1.83h-1.07v-1.79l-2.09-3.81h1.09l1.53 2.64 1.5-2.64h1.08z" fill="#1f2f59"/><path d="m76.75 108h-1.39v1.38h-.68v-1.38h-1.39v-.72h1.39v-1.38h.68v1.38h1.39z" fill="#1f2f59"/><path d="m84.3 105.7a1.9 1.9 0 0 0 -1.77.06 1.78 1.78 0 0 0 -.68.68 2 2 0 0 0 -.25 1 1.92 1.92 0 0 0 .25.95 1.74 1.74 0 0 0 .68.69 1.86 1.86 0 0 0 1 .26 2 2 0 0 0 .81-.18 2.2 2.2 0 0 0 .71-.49l.64.71a3.48 3.48 0 0 1 -1 .7 2.77 2.77 0 0 1 -1.18.26 2.89 2.89 0 0 1 -1.48-.38 2.8 2.8 0 0 1 -1.44-2.5 2.79 2.79 0 0 1 1.41-2.53 3 3 0 0 1 1.5-.38 3 3 0 0 1 1.17.24 2.76 2.76 0 0 1 1 .67l-.63.78a2.06 2.06 0 0 0 -.74-.54z" fill="#1f2f59"/><path d="m91.26 104.62v.94h-3v1.38h2.74v.94h-2.77v1.41h3.13v.93h-4.2v-5.6z" fill="#1f2f59"/><path d="m95.62 108.57h-1.46v1.65h-1.08v-5.6h2.34a2.48 2.48 0 0 1 1.68.51 1.77 1.77 0 0 1 .59 1.42 2.09 2.09 0 0 1 -.28 1.12 1.79 1.79 0 0 1 -.83.7l1.23 1.85h-1.22zm-.2-.94a1.47 1.47 0 0 0 .93-.26 1 1 0 0 0 .32-.79 1 1 0 0 0 -.32-.77 1.47 1.47 0 0 0 -.93-.25h-1.26v2.07z" fill="#1f2f59"/><path d="m103.45 104.62v.95h-1.74v4.65h-1.08v-4.65h-1.75v-.95z" fill="#1f2f59"/><path d="m105.92 104.62v5.6h-1.07v-5.6z" fill="#1f2f59"/><path d="m111.8 104.62v.94h-2.8v1.51h2.54v.93h-2.54v2.21h-1.07v-5.6z" fill="#1f2f59"/><path d="m114.32 104.62v5.6h-1.08v-5.6z" fill="#1f2f59"/><path d="m120.44 104.62v.94h-3v1.38h2.72v.94h-2.76v1.41h3.13v.93h-4.2v-5.6z" fill="#1f2f59"/><path d="m126.09 105a2.63 2.63 0 0 1 1 1 2.76 2.76 0 0 1 .38 1.44 2.83 2.83 0 0 1 -.38 1.45 2.78 2.78 0 0 1 -1 1 3.2 3.2 0 0 1 -1.53.36h-2.29v-5.6h2.33a3.08 3.08 0 0 1 1.49.35zm-.55 4.06a1.67 1.67 0 0 0 .64-.65 2 2 0 0 0 .23-1 1.9 1.9 0 0 0 -.24-1 1.7 1.7 0 0 0 -.66-.67 2 2 0 0 0 -.94-.23h-1.24v3.71h1.28a1.84 1.84 0 0 0 .93-.22z" fill="#1f2f59"/><path d="m135.58 105a1.18 1.18 0 0 1 .52 1 1.28 1.28 0 0 1 -.26.8 1.22 1.22 0 0 1 -.72.44 1.37 1.37 0 0 1 1.2 1.42 1.33 1.33 0 0 1 -.56 1.13 2.47 2.47 0 0 1 -1.52.41h-2.56v-5.6h2.49a2.34 2.34 0 0 1 1.41.4zm-.81 1.73a.65.65 0 0 0 .23-.51.6.6 0 0 0 -.23-.5 1.07 1.07 0 0 0 -.65-.17h-1.36v1.36h1.36a1.07 1.07 0 0 0 .65-.18zm.15 2.37a.64.64 0 0 0 .28-.56.61.61 0 0 0 -.28-.54 1.44 1.44 0 0 0 -.8-.19h-1.36v1.49h1.36a1.36 1.36 0 0 0 .8-.2z" fill="#1f2f59"/><path d="m139.34 109a1.37 1.37 0 0 0 1 .38 1.31 1.31 0 0 0 1-.38 1.41 1.41 0 0 0 .37-1v-3.3h1.07v3.3a2.59 2.59 0 0 1 -.3 1.27 2 2 0 0 1 -.84.83 2.79 2.79 0 0 1 -1.29.28 2.84 2.84 0 0 1 -1.35-.38 2 2 0 0 1 -.85-.83 2.59 2.59 0 0 1 -.3-1.27v-3.3h1.15v3.3a1.41 1.41 0 0 0 .34 1.1z" fill="#1f2f59"/><path d="m147.32 105.65a2.87 2.87 0 0 0 -.8-.14 1.13 1.13 0 0 0 -.6.14.47.47 0 0 0 -.23.41.49.49 0 0 0 .16.38 1.11 1.11 0 0 0 .39.26 5.73 5.73 0 0 0 .64.22 6.17 6.17 0 0 1 .94.34 1.71 1.71 0 0 1 .62.49 1.37 1.37 0 0 1 .25.86 1.52 1.52 0 0 1 -.27.9 1.86 1.86 0 0 1 -.76.58 3 3 0 0 1 -1.11.2 3.32 3.32 0 0 1 -1.28-.25 3.59 3.59 0 0 1 -1.09-.65l.45-.91a3.31 3.31 0 0 0 1 .62 2.69 2.69 0 0 0 1 .22 1.31 1.31 0 0 0 .71-.17.54.54 0 0 0 .25-.47.57.57 0 0 0 -.15-.4 1.44 1.44 0 0 0 -.4-.25l-.65-.22a8.84 8.84 0 0 1 -.93-.32 1.63 1.63 0 0 1 -.62-.49 1.32 1.32 0 0 1 -.25-.85 1.38 1.38 0 0 1 .26-.85 1.7 1.7 0 0 1 .73-.57 2.92 2.92 0 0 1 1.1-.2 4 4 0 0 1 1.08.16 4 4 0 0 1 .95.44l-.44.93a4.38 4.38 0 0 0 -.95-.41z" fill="#1f2f59"/><path d="m154.45 104.62v.94h-3v1.38h2.72v.94h-2.72v1.41h3.13v.93h-4.2v-5.6z" fill="#1f2f59"/><path d="m158.91 105.65a2.87 2.87 0 0 0 -.79-.14 1.17 1.17 0 0 0 -.61.14.47.47 0 0 0 -.23.41.53.53 0 0 0 .16.38 1.11 1.11 0 0 0 .39.26 5.33 5.33 0 0 0 .65.22 6.43 6.43 0 0 1 .93.34 1.63 1.63 0 0 1 .62.49 1.37 1.37 0 0 1 .25.86 1.52 1.52 0 0 1 -.27.9 1.86 1.86 0 0 1 -.76.58 3 3 0 0 1 -1.11.2 3.35 3.35 0 0 1 -1.28-.25 3.59 3.59 0 0 1 -1.09-.65l.45-.91a3.31 3.31 0 0 0 .95.62 2.7 2.7 0 0 0 1 .22 1.29 1.29 0 0 0 .7-.17.55.55 0 0 0 .26-.47.58.58 0 0 0 -.16-.4 1.3 1.3 0 0 0 -.4-.25l-.65-.22a8.84 8.84 0 0 1 -.93-.32 1.63 1.63 0 0 1 -.62-.49 1.32 1.32 0 0 1 -.25-.85 1.38 1.38 0 0 1 .26-.85 1.76 1.76 0 0 1 .73-.57 2.92 2.92 0 0 1 1.1-.2 3.74 3.74 0 0 1 2 .6l-.43.93a4.73 4.73 0 0 0 -.87-.41z" fill="#1f2f59"/><path d="m169.6 110a.5.5 0 0 1 -.35-.85l1.71-1.71-1.71-1.72a.49.49 0 1 1 .7-.7l2.07 2.06a.51.51 0 0 1 0 .71l-2.02 2.05a.5.5 0 0 1 -.4.16z" fill="#1f2f59"/><path d="m171.67 107.92h-5.67a.5.5 0 0 1 -.5-.5.5.5 0 0 1 .5-.5h5.63a.5.5 0 0 1 .5.5.51.51 0 0 1 -.46.5z" fill="#1f2f59"/><path d="m14.14 32.45a20.7 20.7 0 0 0 1.31 11.55 18.1 18.1 0 0 0 9.55 9 18.07 18.07 0 0 0 9.54-9 20.83 20.83 0 0 0 1.32-11.5l-10.86-5.71z" fill="#72bf98"/><g fill="#1f2f59"><path d="m29.78 38h-3v-3a.8.8 0 0 0 -.8-.81h-1.98a.8.8 0 0 0 -.8.81v3h-3a.8.8 0 0 0 -.8.81v2a.8.8 0 0 0 .8.8h3v3a.8.8 0 0 0 .8.81h2a.8.8 0 0 0 .8-.81v-3h3a.8.8 0 0 0 .8-.8v-2a.8.8 0 0 0 -.82-.81z"/><path d="m38 31.43a1.15 1.15 0 0 0 -.6-.79l-11.9-6.21a1.21 1.21 0 0 0 -1.08 0l-11.9 6.21a1.15 1.15 0 0 0 -.6.79c-.16.74-1.44 7.4 1.38 13.5a20.47 20.47 0 0 0 11.28 10.37 1.24 1.24 0 0 0 .82 0 20.47 20.47 0 0 0 11.25-10.37c2.82-6.1 1.54-12.76 1.35-13.5zm-3.47 12.57a18.07 18.07 0 0 1 -9.53 9 18.1 18.1 0 0 1 -9.54-9 20.7 20.7 0 0 1 -1.31-11.5l10.85-5.71 10.86 5.66a20.83 20.83 0 0 1 -1.33 11.55z"/><path d="m56 35.77a10.19 10.19 0 0 0 -3.11-.65 2.15 2.15 0 0 0 -1.21.3 1 1 0 0 0 -.43.86 1.35 1.35 0 0 0 .84 1.23 15.31 15.31 0 0 0 2.69 1 25.4 25.4 0 0 1 3.45 1.2 6.35 6.35 0 0 1 2.36 1.85 5.08 5.08 0 0 1 1 3.28 5.66 5.66 0 0 1 -1.09 3.5 6.57 6.57 0 0 1 -2.94 2.13 11.62 11.62 0 0 1 -4.15.71 16 16 0 0 1 -5.1-.86 14.42 14.42 0 0 1 -4.43-2.37l2.21-4.46a13.56 13.56 0 0 0 3.66 2.19 10.13 10.13 0 0 0 3.72.89 2.6 2.6 0 0 0 1.5-.37 1.18 1.18 0 0 0 .54-1 1.37 1.37 0 0 0 -.88-1.25 14.43 14.43 0 0 0 -2.72-.92 25 25 0 0 1 -3.42-1.12 6.08 6.08 0 0 1 -2.33-1.91 4.89 4.89 0 0 1 -1-3.19 5.6 5.6 0 0 1 1-3.35 6.48 6.48 0 0 1 2.87-2.19 11.29 11.29 0 0 1 4.32-.77 16.1 16.1 0 0 1 4.44.64 14.38 14.38 0 0 1 3.84 1.68l-2.18 4.53a18.7 18.7 0 0 0 -3.45-1.58z"/><path d="m76.12 36.66a5.06 5.06 0 0 1 1.82 4.15v10h-5.6v-1.7a4.66 4.66 0 0 1 -1.85 1.44 6.44 6.44 0 0 1 -2.64.51 5.33 5.33 0 0 1 -3.85-1.33 4.61 4.61 0 0 1 -1.39-3.52 4.16 4.16 0 0 1 1.51-3.44 7.15 7.15 0 0 1 4.43-1.23h3.76v-.06a1.76 1.76 0 0 0 -.65-1.48 3.12 3.12 0 0 0 -2-.54 9.69 9.69 0 0 0 -2.16.28 14.3 14.3 0 0 0 -2.47.82l-1.42-3.79a19.81 19.81 0 0 1 7.39-1.59 7.84 7.84 0 0 1 5.12 1.48zm-4.8 10.23a2.49 2.49 0 0 0 1-1.16v-1.39h-2.6c-1.15 0-1.73.48-1.73 1.44a1.42 1.42 0 0 0 .46 1.13 1.83 1.83 0 0 0 1.27.4 3 3 0 0 0 1.6-.42z"/><path d="m88.11 34.39a1.34 1.34 0 0 0 -.44 1.07v.74h3.19v3.64h-3.19v10.95h-5.67v-10.95h-2.08v-3.64h2.08v-1.42a4.74 4.74 0 0 1 1.68-3.78 6.5 6.5 0 0 1 4.38-1.42 11.22 11.22 0 0 1 3.48.57l-.62 4.24a5.63 5.63 0 0 0 -1.64-.39 1.65 1.65 0 0 0 -1.17.39z"/><path d="m105.14 37.46a8.55 8.55 0 0 1 2.13 6.15q0 .59 0 .87h-10.38a3.28 3.28 0 0 0 1.11 1.7 3.05 3.05 0 0 0 1.88.59 5 5 0 0 0 3.4-1.47l3 2.92a7.94 7.94 0 0 1 -3 2.06 10.25 10.25 0 0 1 -3.88.72 9.44 9.44 0 0 1 -4.4-1 6.9 6.9 0 0 1 -2.87-2.74 8.19 8.19 0 0 1 -1-4.12 8.31 8.31 0 0 1 1-4.17 7.06 7.06 0 0 1 2.87-2.77 8.82 8.82 0 0 1 4.24-1 7.72 7.72 0 0 1 5.9 2.26zm-4.14 2.36a2.18 2.18 0 0 0 -1.7-.74 2.13 2.13 0 0 0 -1.64.71 3.78 3.78 0 0 0 -.88 1.89h4.84a2.61 2.61 0 0 0 -.62-1.86z"/><path d="m118.05 50.77a10.48 10.48 0 0 1 -2.36.27 5.58 5.58 0 0 1 -3.93-1.35 4.81 4.81 0 0 1 -1.47-3.69v-6.16h-2.12v-3.64h2.12v-4.27h5.71v4.27h3.78v3.64h-3.78v5.26a1.62 1.62 0 0 0 .33 1.11 1.28 1.28 0 0 0 1 .36 5.93 5.93 0 0 0 1.75-.45l1 3.93a7.41 7.41 0 0 1 -2.03.72z"/><path d="m128.9 55.44a6.71 6.71 0 0 1 -3.9 1.09 8.07 8.07 0 0 1 -2.61-.41 8.25 8.25 0 0 1 -2.34-1.29l2.37-3.83a3.63 3.63 0 0 0 1 .67 2.77 2.77 0 0 0 1 .2 1.72 1.72 0 0 0 1.67-1l.28-.54-6.36-15h5.85l3.36 9.42 2.86-9.42h5.68l-6.44 16.69a7.22 7.22 0 0 1 -2.42 3.42z"/><path d="m151.3 43.29h-4.61v4.64h-3.57v-4.64h-4.64v-3.56h4.64v-4.64h3.57v4.64h4.61z"/><path d="m13.19 67.38v6.18h-1.19v-6.18z"/><path d="m20.35 67.38v6.18h-1.13l-3.17-4.25v4.25h-1.16v-6.18h1.11l3.19 4.27v-4.27z"/><path d="m26.39 67.38v1.05h-1.92v5.13h-1.19v-5.13h-1.93v-1.05z"/><path d="m30.21 71.74h-1.62v1.82h-1.18v-6.18h2.59a2.76 2.76 0 0 1 1.85.56 1.93 1.93 0 0 1 .65 1.57 2.35 2.35 0 0 1 -.31 1.24 2 2 0 0 1 -.91.77l1.36 2h-1.36zm-.22-1a1.59 1.59 0 0 0 1-.29 1 1 0 0 0 .35-.86 1 1 0 0 0 -.34-.89 1.59 1.59 0 0 0 -1-.28h-1.4v2.28z"/><path d="m38.45 67.72a3.07 3.07 0 0 1 1.62 2.74 3.12 3.12 0 0 1 -.43 1.62 3.28 3.28 0 0 1 -1.19 1.15 3.37 3.37 0 0 1 -1.67.42 3.41 3.41 0 0 1 -1.68-.42 3.18 3.18 0 0 1 -1.18-1.15 3.13 3.13 0 0 1 -.44-1.62 3.06 3.06 0 0 1 .44-1.6 2.94 2.94 0 0 1 1.18-1.14 3.41 3.41 0 0 1 1.68-.42 3.37 3.37 0 0 1 1.67.42zm-2.71.92a2.11 2.11 0 0 0 -.74 2.89 2.11 2.11 0 0 0 .77.77 2 2 0 0 0 1 .28 2 2 0 0 0 1.79-1 2.17 2.17 0 0 0 0-2.13 2 2 0 0 0 -.75-.76 2.08 2.08 0 0 0 -1-.28 2.17 2.17 0 0 0 -1.07.23z"/><path d="m45.52 67.78a2.87 2.87 0 0 1 1.15 1.09 3.2 3.2 0 0 1 .41 1.6 3 3 0 0 1 -1.58 2.7 3.6 3.6 0 0 1 -1.69.39h-2.52v-6.18h2.57a3.37 3.37 0 0 1 1.66.4zm-.62 4.48a1.76 1.76 0 0 0 .71-.72 2.06 2.06 0 0 0 .26-1.06 2.19 2.19 0 0 0 -.26-1.06 1.83 1.83 0 0 0 -.73-.73 2 2 0 0 0 -1-.27h-1.41v4.1h1.41a2 2 0 0 0 1.02-.26z"/><path d="m49.77 72.17a1.53 1.53 0 0 0 1.11.41 1.46 1.46 0 0 0 1.1-.41 1.58 1.58 0 0 0 .41-1.17v-3.62h1.18v3.62a2.84 2.84 0 0 1 -.33 1.4 2.21 2.21 0 0 1 -.93.91 2.93 2.93 0 0 1 -1.43.32 3 3 0 0 1 -1.44-.32 2.17 2.17 0 0 1 -.94-.91 2.84 2.84 0 0 1 -.33-1.4v-3.62h1.19v3.62a1.58 1.58 0 0 0 .41 1.17z"/><path d="m58.84 68.57a2 2 0 0 0 -.9-.21 2 2 0 0 0 -1 .28 1.93 1.93 0 0 0 -.75.75 2.13 2.13 0 0 0 0 2.11 2 2 0 0 0 .75.76 2 2 0 0 0 1 .28 2.25 2.25 0 0 0 .89-.2 2.44 2.44 0 0 0 .79-.53l.69.77a3.57 3.57 0 0 1 -1.13.78 3 3 0 0 1 -1.3.29 3.28 3.28 0 0 1 -1.64-.42 3.12 3.12 0 0 1 -1.58-2.77 3 3 0 0 1 .43-1.6 3 3 0 0 1 1.18-1.14 3.37 3.37 0 0 1 2.95-.15 3.17 3.17 0 0 1 1.09.73l-.69.87a2.4 2.4 0 0 0 -.78-.6z"/><path d="m62.65 67.38v6.18h-1.19v-6.18z"/><path d="m69.8 67.38v6.18h-1.12l-3.18-4.25v4.25h-1.16v-6.18h1.12l3.19 4.27v-4.27z"/><path d="m76.72 70.49v2.35a4.29 4.29 0 0 1 -1.15.59 4 4 0 0 1 -1.3.22 3.29 3.29 0 0 1 -1.65-.42 3.25 3.25 0 0 1 -1.18-1.15 3.12 3.12 0 0 1 -.44-1.62 3 3 0 0 1 .44-1.6 3.13 3.13 0 0 1 1.2-1.14 3.47 3.47 0 0 1 1.69-.42 3.7 3.7 0 0 1 1.31.24 3.57 3.57 0 0 1 1.11.65l-.67.88a2.49 2.49 0 0 0 -.82-.52 2.31 2.31 0 0 0 -.93-.19 2.22 2.22 0 0 0 -1.07.28 2.11 2.11 0 0 0 1.08 3.94 2.32 2.32 0 0 0 .67-.1 3 3 0 0 0 .67-.29v-1.7z"/><path d="m83.51 68.52a3.11 3.11 0 0 0 -.88-.16 1.3 1.3 0 0 0 -.67.16.5.5 0 0 0 -.24.44.56.56 0 0 0 .17.43 1.19 1.19 0 0 0 .43.28 5.52 5.52 0 0 0 .71.25 6.59 6.59 0 0 1 1 .37 1.7 1.7 0 0 1 .68.54 1.52 1.52 0 0 1 .29 1 1.64 1.64 0 0 1 -.31 1 1.82 1.82 0 0 1 -.84.64 3.09 3.09 0 0 1 -1.22.22 3.84 3.84 0 0 1 -1.41-.27 4 4 0 0 1 -1.2-.71l.49-1a3.64 3.64 0 0 0 1 .68 2.87 2.87 0 0 0 1.09.24 1.39 1.39 0 0 0 .77-.18.6.6 0 0 0 .29-.52.59.59 0 0 0 -.18-.44 1.33 1.33 0 0 0 -.43-.28 6.52 6.52 0 0 0 -.73-.23 10.15 10.15 0 0 1 -1-.37 1.73 1.73 0 0 1 -.62-.61 1.46 1.46 0 0 1 -.28-.94 1.58 1.58 0 0 1 .28-.94 1.85 1.85 0 0 1 .82-.62 3 3 0 0 1 1.21-.22 4 4 0 0 1 1.19.17 4 4 0 0 1 1 .48l-.47 1a5.06 5.06 0 0 0 -.94-.41z"/><path d="m90.31 72.26h-3l-.55 1.3h-1.25l2.71-6.18h1.23l2.67 6.18h-1.27zm-.43-1-1.07-2.59-1.1 2.59z"/><path d="m97.32 67.38v1h-3.09v1.66h2.77v1h-2.8v2.44h-1.15v-6.1z"/><path d="m102.91 67.38v1h-3.35v1.52h3v1h-3v1.55h3.44v1h-4.62v-6.07z"/><path d="m108.74 67.38v1.05h-1.92v5.13h-1.2v-5.13h-1.92v-1.05z"/><path d="m112.48 71.54v2h-1.19v-2l-2.29-4.16h1.2l1.69 2.91 1.66-2.91h1.19z"/><path d="m119.35 67.38 2.05 4 2-4h1.35v6.18h-1.05v-4.43l-1.93 3.8h-.77l-1.93-3.8v4.43h-1.07v-6.18z"/><path d="m131 67.38v1h-3.35v1.52h3v1h-3v1.55h3.45v1h-4.63v-6.07z"/><path d="m136.52 72.26h-3l-.55 1.3h-1.23l2.71-6.18h1.23l2.68 6.18h-1.28zm-.43-1-1.09-2.61-1.1 2.59z"/><path d="m142.13 68.52a3.23 3.23 0 0 0 -.88-.16 1.27 1.27 0 0 0 -.67.16.49.49 0 0 0 -.25.44.6.6 0 0 0 .17.43 1.23 1.23 0 0 0 .44.28 5.52 5.52 0 0 0 .71.25 6.43 6.43 0 0 1 1 .37 1.81 1.81 0 0 1 .69.54 1.52 1.52 0 0 1 .28 1 1.63 1.63 0 0 1 -.3 1 1.93 1.93 0 0 1 -.84.64 3.16 3.16 0 0 1 -1.22.22 3.85 3.85 0 0 1 -1.42-.27 4 4 0 0 1 -1.2-.71l.5-1a3.64 3.64 0 0 0 1.05.68 2.87 2.87 0 0 0 1.08.24 1.45 1.45 0 0 0 .78-.18.59.59 0 0 0 .28-.52.58.58 0 0 0 -.17-.44 1.28 1.28 0 0 0 -.44-.28 5.66 5.66 0 0 0 -.72-.23 8.6 8.6 0 0 1 -1-.37 1.6 1.6 0 0 1 -.68-.53 1.47 1.47 0 0 1 -.29-.94 1.59 1.59 0 0 1 .29-.94 1.77 1.77 0 0 1 .81-.62 3.09 3.09 0 0 1 1.22-.22 4 4 0 0 1 1.18.17 4.21 4.21 0 0 1 1.05.48l-.48 1a4.72 4.72 0 0 0 -.97-.49z"/><path d="m146.42 72.17a1.54 1.54 0 0 0 1.12.41 1.46 1.46 0 0 0 1.09-.41 1.58 1.58 0 0 0 .37-1.17v-3.62h1.18v3.62a2.84 2.84 0 0 1 -.33 1.4 2.21 2.21 0 0 1 -.93.91 2.92 2.92 0 0 1 -1.42.32 3 3 0 0 1 -1.45-.32 2.17 2.17 0 0 1 -.94-.91 2.84 2.84 0 0 1 -.33-1.4v-3.62h1.22v3.62a1.58 1.58 0 0 0 .42 1.17z"/><path d="m154.59 71.74h-1.59v1.82h-1.18v-6.18h2.58a2.76 2.76 0 0 1 1.85.56 1.93 1.93 0 0 1 .66 1.57 2.36 2.36 0 0 1 -.32 1.24 2 2 0 0 1 -.91.77l1.36 2h-1.35zm-.22-1a1.57 1.57 0 0 0 1-.29 1 1 0 0 0 .36-.86 1 1 0 0 0 -.36-.85 1.57 1.57 0 0 0 -1-.28h-1.37v2.24z"/><path d="m162.88 67.38v1h-3.35v1.52h3v1h-3v1.55h3.47v1h-4.64v-6.07z"/><path d="m167.27 68.52a3.11 3.11 0 0 0 -.88-.16 1.3 1.3 0 0 0 -.67.16.5.5 0 0 0 -.24.44.56.56 0 0 0 .17.43 1.19 1.19 0 0 0 .43.28 5.52 5.52 0 0 0 .71.25 6.59 6.59 0 0 1 1 .37 1.7 1.7 0 0 1 .68.54 1.52 1.52 0 0 1 .29 1 1.57 1.57 0 0 1 -.31 1 1.82 1.82 0 0 1 -.84.64 3.09 3.09 0 0 1 -1.22.22 3.84 3.84 0 0 1 -1.41-.27 4 4 0 0 1 -1.2-.71l.49-1a3.64 3.64 0 0 0 1 .68 2.87 2.87 0 0 0 1.09.24 1.39 1.39 0 0 0 .77-.18.6.6 0 0 0 .29-.52.62.62 0 0 0 -.17-.44 1.51 1.51 0 0 0 -.44-.28 6.52 6.52 0 0 0 -.73-.23 10.15 10.15 0 0 1 -1-.37 1.73 1.73 0 0 1 -.68-.53 1.46 1.46 0 0 1 -.28-.94 1.58 1.58 0 0 1 .28-.94 1.85 1.85 0 0 1 .82-.62 3 3 0 0 1 1.21-.22 4 4 0 0 1 1.19.17 4 4 0 0 1 1 .48l-.47 1a5.06 5.06 0 0 0 -.88-.49z"/><path d="m16.36 81.51v1h-1.92v5.13h-1.19v-5.08h-1.93v-1z"/><path d="m21.51 81.84a3.15 3.15 0 0 1 1.18 4.36 3 3 0 0 1 -1.18 1.15 3.31 3.31 0 0 1 -1.68.43 3.27 3.27 0 0 1 -1.67-.43 3.1 3.1 0 0 1 -1.62-2.76 3.07 3.07 0 0 1 1.62-2.75 3.47 3.47 0 0 1 1.67-.41 3.51 3.51 0 0 1 1.68.41zm-2.71.93a2.08 2.08 0 0 0 -.77.76 2 2 0 0 0 -.28 1.06 2.11 2.11 0 0 0 2.1 2.12 2 2 0 0 0 1-.28 2.16 2.16 0 0 0 .76-.77 2.19 2.19 0 0 0 .28-1.07 2.12 2.12 0 0 0 -.28-1.06 2.05 2.05 0 0 0 -.76-.76 1.94 1.94 0 0 0 -1-.28 2 2 0 0 0 -1.05.28z"/><path d="m27.87 81.51v2.64h3.13v-2.64h1.18v6.18h-1.18v-2.51h-3.13v2.51h-1.18v-6.18z"/><path d="m38.37 81.51v1h-3.37v1.53h3v1h-3v1.56h3.45v1h-4.61v-6.09z"/><path d="m41 81.51v5.11h2.7v1.07h-3.85v-6.18z"/><path d="m49.14 82.06a2 2 0 0 1 .64 1.58 2.1 2.1 0 0 1 -.64 1.64 2.58 2.58 0 0 1 -1.8.59h-1.34v1.82h-1.2v-6.18h2.54a2.67 2.67 0 0 1 1.8.55zm-.84 2.48a1.07 1.07 0 0 0 .36-.87 1 1 0 0 0 -.36-.85 1.68 1.68 0 0 0 -1-.28h-1.3v2.29h1.29a1.62 1.62 0 0 0 1.01-.29z"/><path d="m56 85.67v2h-1.19v-2l-2.3-4.2h1.2l1.69 2.9 1.66-2.9h1.19z"/><path d="m63.44 81.84a3.15 3.15 0 0 1 1.18 1.16 3.16 3.16 0 0 1 -1.18 4.37 3.34 3.34 0 0 1 -1.68.43 3.27 3.27 0 0 1 -1.67-.43 3.13 3.13 0 0 1 -1.19-1.17 3.23 3.23 0 0 1 0-3.22 3.18 3.18 0 0 1 1.19-1.14 3.47 3.47 0 0 1 1.67-.41 3.54 3.54 0 0 1 1.68.41zm-2.71.93a2.08 2.08 0 0 0 -.77.76 2 2 0 0 0 -.28 1.06 2 2 0 0 0 .32 1.07 2.16 2.16 0 0 0 .76.77 2.11 2.11 0 0 0 1.05.28 2 2 0 0 0 1-.28 2.16 2.16 0 0 0 .76-.77 2.19 2.19 0 0 0 .28-1.07 2.12 2.12 0 0 0 -.28-1.06 2.05 2.05 0 0 0 -.76-.76 1.94 1.94 0 0 0 -1-.28 2 2 0 0 0 -1.08.28z"/><path d="m67.76 86.29a1.66 1.66 0 0 0 2.21 0 1.54 1.54 0 0 0 .4-1.14v-3.64h1.18v3.64a3 3 0 0 1 -.32 1.4 2.23 2.23 0 0 1 -.94.91 3 3 0 0 1 -1.42.32 3.09 3.09 0 0 1 -1.44-.32 2.18 2.18 0 0 1 -.94-.91 2.87 2.87 0 0 1 -.33-1.4v-3.64h1.18v3.64a1.51 1.51 0 0 0 .42 1.14z"/><path d="m79.82 81.51v1h-1.93v5.13h-1.19v-5.08h-1.92v-1z"/><path d="m83.63 85.86h-1.63v1.82h-1.17v-6.17h2.58a2.76 2.76 0 0 1 1.85.55 2 2 0 0 1 .66 1.58 2.3 2.3 0 0 1 -.32 1.23 1.88 1.88 0 0 1 -.91.77l1.36 2h-1.35zm-.22-1a1.57 1.57 0 0 0 1-.29 1.07 1.07 0 0 0 .36-.87 1 1 0 0 0 -.36-.85 1.63 1.63 0 0 0 -1-.28h-1.41v2.29z"/><path d="m91.42 86.38h-3l-.55 1.31h-1.25l2.71-6.18h1.23l2.68 6.18h-1.24zm-.43-1-1.07-2.6-1.1 2.6z"/><path d="m94.24 81.51 1.82 4.86 1.84-4.86h1.22l-2.47 6.18h-1.23l-2.42-6.18z"/><path d="m104.61 81.51v1h-3.35v1.53h3v1h-3v1.56h3.45v1h-4.63v-6.09z"/><path d="m107.28 81.51v5.11h2.66v1.07h-3.85v-6.18z"/><path d="m114.57 81.51v6.18h-1.19v-6.18z"/><path d="m121.72 81.51v6.18h-1.12l-3.18-4.26v4.26h-1.16v-6.18h1.12l3.19 4.26v-4.26z"/><path d="m130.09 82.06a2 2 0 0 1 .64 1.58 2.1 2.1 0 0 1 -.64 1.64 2.57 2.57 0 0 1 -1.8.59h-1.35v1.82h-1.19v-6.18h2.54a2.65 2.65 0 0 1 1.8.55zm-.84 2.48a1.07 1.07 0 0 0 .36-.87 1 1 0 0 0 -.36-.85 1.65 1.65 0 0 0 -1-.28h-1.29v2.29h1.29a1.59 1.59 0 0 0 1-.29z"/><path d="m136.42 81.51v1h-3.35v1.53h3v1h-3v1.56h3.46v1h-4.64v-6.09z"/><path d="m141.93 86.38h-3l-.55 1.31h-1.23l2.71-6.18h1.23l2.68 6.18h-1.27zm-.43-1-1.07-2.6-1.1 2.6z"/><path d="m148.22 82.7a2.1 2.1 0 0 0 -2.71 2.93 2.18 2.18 0 0 0 .75.76 2.11 2.11 0 0 0 1.05.27 2.19 2.19 0 0 0 .89-.19 2.52 2.52 0 0 0 .79-.54l.7.78a3.57 3.57 0 0 1 -1.13.78 3.23 3.23 0 0 1 -1.31.29 3.15 3.15 0 0 1 -1.63-.43 3.08 3.08 0 0 1 -1.17-1.15 3.14 3.14 0 0 1 -.42-1.61 3.08 3.08 0 0 1 .43-1.61 3.15 3.15 0 0 1 1.18-1.14 3.46 3.46 0 0 1 3-.15 3.1 3.1 0 0 1 1.09.74l-.69.86a2.33 2.33 0 0 0 -.82-.59z"/><path d="m155.37 81.51v1h-3.37v1.53h3v1h-3v1.56h3.45v1h-4.63v-6.09z"/></g><path d="m169.33 15.63h-3.9v-3.87a1 1 0 0 0 -1-1h-2.46a1 1 0 0 0 -1 1v3.87h-3.97a1 1 0 0 0 -1 1v2.58a1 1 0 0 0 1 1h3.9v3.84a1 1 0 0 0 1 1h2.46a1 1 0 0 0 1-1v-3.76h3.9a1 1 0 0 0 1-1v-2.62a1 1 0 0 0 -.93-1.04z" fill="#efa016" opacity=".6"/><path d="m151.82 5.28h-1.32v-1.28a.35.35 0 0 0 -.35-.35h-.83a.35.35 0 0 0 -.32.35v1.28h-1.32a.35.35 0 0 0 -.35.35v.87a.35.35 0 0 0 .35.35h1.32v1.3a.35.35 0 0 0 .35.35h.83a.35.35 0 0 0 .35-.35v-1.3h1.32a.35.35 0 0 0 .35-.35v-.87a.35.35 0 0 0 -.38-.35z" fill="#efa016" opacity=".4"/><path d="m177.23 27.79h-1.09v-1.08a.29.29 0 0 0 -.3-.29h-.68a.29.29 0 0 0 -.3.29v1.08h-1.09a.29.29 0 0 0 -.29.29v.72a.29.29 0 0 0 .29.3h1.09v1.07a.29.29 0 0 0 .3.29h.68a.29.29 0 0 0 .3-.29v-1.07h1.09a.29.29 0 0 0 .29-.3v-.72a.29.29 0 0 0 -.29-.29z" fill="#efa016" opacity=".4"/><path d="m178.7 7h-1.14v-1.14a.3.3 0 0 0 -.3-.3h-.72a.3.3 0 0 0 -.3.3v1.14h-1.14a.31.31 0 0 0 -.31.31v.75a.31.31 0 0 0 .31.31h1.14v1.11a.29.29 0 0 0 .3.3h.72a.29.29 0 0 0 .3-.3v-1.12h1.14a.31.31 0 0 0 .31-.31v-.75a.31.31 0 0 0 -.31-.3z" fill="#efa016" opacity=".3"/></svg>